<svg version="1.1" id="Layer_1" xmlns="http://www.w3.org/2000/svg" xmlns:xlink="http://www.w3.org/1999/xlink" x="0px" y="0px"
	 viewBox="0 0 401 490" style="enable-background:new 0 0 401 490;" xml:space="preserve">
<style type="text/css">
	.st0{fill:#FFFFFF;}
	.st1{fill:#E1DFDF;}
</style>
<g>
	<path class="st0" d="M172.1,322.6c-49,0-95.1-24-123.1-64.1C1.7,190.7,18.3,97,86.1,49.6c25.3-17.7,55-27.1,85.8-27.1
		c49,0,95.1,24,123.1,64.1c47.4,67.8,30.8,161.5-37,208.9C232.6,313.2,202.9,322.6,172.1,322.6z"/>
	<path class="st1" d="M171.9,37.6c21.3,0,42.6,5.1,61.6,14.8c19.5,10,36.6,24.8,49.2,42.9c20.7,29.6,28.6,65.4,22.3,100.9
		c-6.3,35.5-26,66.4-55.6,87.1c-22.8,15.9-49.5,24.4-77.2,24.4c-21.3,0-42.6-5.1-61.6-14.8C91,282.9,74,268,61.3,249.9
		C40.7,220.3,32.8,184.5,39.1,149c6.3-35.5,26-66.4,55.6-87.1C117.5,46,144.2,37.6,171.9,37.6L171.9,37.6L171.9,37.6 M171.9,7.6
		c-32.6,0-65.6,9.7-94.4,29.8C2.8,89.5-15.4,192.4,36.8,267.1c32.1,45.9,83.3,70.5,135.4,70.5c32.6,0,65.6-9.7,94.4-29.8
		c74.7-52.2,92.9-155.1,40.7-229.8C275.2,32.1,223.9,7.6,171.9,7.6L171.9,7.6z"/>
</g>
<g>
	<path class="st1" d="M384.6,476.6l-4.2,3c-8.6,6-20.4,3.9-26.4-4.7L250.2,326.4c-6-8.6-3.9-20.4,4.7-26.4l4.2-3
		c8.6-6,20.4-3.9,26.4,4.7l103.8,148.5C395.2,458.8,393.1,470.6,384.6,476.6z"/>
</g>
</svg>
