<svg version="1.1" id="Layer_1" xmlns="http://www.w3.org/2000/svg" xmlns:xlink="http://www.w3.org/1999/xlink" x="0px" y="0px"
	 viewBox="0 0 255.4 82.6" style="enable-background:new 0 0 255.4 82.6;" xml:space="preserve">
<style type="text/css">
	.st0{fill:#17459A;}
	.st1{fill:#989899;}
</style>
<path class="st0" d="M19.5,53.6L19.5,53.6C8.2,53.4,1.1,43.2,1.1,33.8c0-10.8,8.4-19.9,18.4-19.9c11,0,18.4,10.3,18.4,19.9
	C37.9,44.5,29.7,53.4,19.5,53.6L19.5,53.6L19.5,53.6z M19.5,18.3c-8.4,0-14,8-14,15.5c0.3,7.6,5.6,15.5,14,15.5c8.4,0,14-8,14-15.5
	C33.6,25.4,27.1,18.3,19.5,18.3z M59.3,53.6c-6,0-13.5-3.6-16.2-10.4c-0.4-1-0.6-2.2-0.6-3.3V1.5C42.5,0.7,43.2,0,44,0h1.4
	c0.8,0,1.5,0.7,1.5,1.5V20c3.8-4.1,8.2-6.1,13-6.1c11.1,0,18,10.3,18,19.9C77.6,44.8,69.2,53.6,59.3,53.6z M46.9,27.5v12.4
	c0,4.7,7.2,9.4,12.4,9.4c8.5,0,14.2-8,14.2-15.5s-5.2-15.5-13.6-15.5C52.4,18.3,48.2,24.9,46.9,27.5L46.9,27.5z M100.2,53.6
	L100.2,53.6c-11.4-0.2-18.4-10.5-18.4-19.8c0-10.8,8.4-19.9,18.4-19.9c11,0,18.4,10.3,18.4,19.9C118.6,44.5,110.4,53.4,100.2,53.6
	C100.2,53.6,100.2,53.6,100.2,53.6z M100.2,18.3c-8.4,0-14,8-14,15.5c0.3,7.6,5.6,15.5,14,15.5s14-8,14-15.5
	C114.2,25.4,107.8,18.3,100.2,18.3z M154.4,53.6L154.4,53.6C143,53.4,136,43.2,136,33.8c0-10.8,8.4-19.9,18.4-19.9
	c11,0,18.4,10.3,18.4,19.9C172.8,44.5,164.5,53.4,154.4,53.6L154.4,53.6z M154.4,18.3c-8.4,0-14,8-14,15.5c0.3,7.6,5.6,15.5,14,15.5
	s14-8,14-15.5C168.4,25.4,162,18.3,154.4,18.3z M235.7,53.6L235.7,53.6c-11.4-0.2-18.4-10.5-18.4-19.8c0-10.8,8.4-19.9,18.4-19.9
	c11,0,18.4,10.3,18.4,19.9C254.1,44.5,245.9,53.4,235.7,53.6L235.7,53.6z M235.7,18.3c-8.4,0-14,8-14,15.5c0.3,7.6,5.6,15.5,14,15.5
	s14-8,14-15.5C249.8,25.4,243.3,18.3,235.7,18.3z M194.8,53.6c-6,0-13.5-3.6-16.2-10.4l-0.1-0.2c-0.2-0.6-0.6-1.4-0.6-3
	c0-15.9,0.1-38.2,0.1-38.5c0-0.8,0.7-1.5,1.5-1.5h1.4c0.8,0,1.5,0.7,1.5,1.5V20c3.8-4.1,8.2-6.1,13-6.1c11.1,0,18,10.3,18,19.9
	C213.1,44.8,204.7,53.6,194.8,53.6L194.8,53.6z M182.4,27.5v12.4c0,4.7,7.2,9.4,12.4,9.4c8.5,0,14.2-8,14.2-15.5
	s-5.2-15.5-13.6-15.5C187.8,18.3,183.7,24.9,182.4,27.5L182.4,27.5z"/>
<path class="st0" d="M119.2,64.6L119.2,64.6c-2.5-0.1-5.6-0.4-7.9-2.8c-0.6-0.6-0.6-1.5,0-2.1c0,0,0.1-0.1,0.2-0.1l1.1-0.8
	c0.6-0.4,1.4-0.4,1.9,0.1c1.1,1,2.6,1.4,4.7,1.4c2.9,0,6.3-2.8,6.3-6.3V16.1c0-0.8,0.7-1.5,1.5-1.5h1.4c0.8,0,1.5,0.7,1.5,1.5v37.8
	C129.8,60.2,124.2,64.6,119.2,64.6z M128.3,8.3h-1.4c-0.8,0-1.5-0.7-1.5-1.5V2.4c0-0.8,0.7-1.5,1.5-1.5h1.4c0.8,0,1.5,0.7,1.5,1.5
	v4.4C129.8,7.6,129.1,8.3,128.3,8.3z"/>
<g>
	<g>
		<path class="st1" d="M1.8,70.4c0-6.6,3.9-10.7,9.1-10.7c2.5,0,4.5,1.2,5.7,2.5L15.2,64C14.1,62.8,12.7,62,11,62
			c-3.9,0-6.5,3.2-6.5,8.3c0,5.2,2.5,8.4,6.4,8.4c2,0,3.5-0.9,4.8-2.3l1.4,1.6c-1.6,1.9-3.6,3-6.3,3C5.7,81,1.8,77.1,1.8,70.4z"/>
		<path class="st1" d="M20.7,77.6V58.3h2.6v19.5c0,0.8,0.3,1.1,0.7,1.1c0.1,0,0.3,0,0.6-0.1l0.3,2c-0.4,0.1-0.8,0.2-1.5,0.2
			C21.5,81,20.7,79.8,20.7,77.6z"/>
		<path class="st1" d="M27.7,76.7c0-3.3,2.9-5,9.4-5.7c0-2-0.7-3.8-3.1-3.8c-1.8,0-3.3,0.8-4.5,1.6l-1-1.8c1.4-0.9,3.5-2,6-2
			c3.7,0,5.3,2.5,5.3,6.3v9.3h-2.1l-0.2-1.8h-0.1c-1.5,1.2-3.1,2.2-5,2.2C29.7,81,27.7,79.5,27.7,76.7z M37.1,76.9v-4.2
			c-5.1,0.6-6.8,1.9-6.8,3.8c0,1.7,1.2,2.4,2.7,2.4C34.4,79,35.6,78.2,37.1,76.9z"/>
		<path class="st1" d="M42.8,78.9l1.3-1.7c1.3,1.1,2.7,1.8,4.5,1.8c2,0,3-1.1,3-2.4c0-1.6-1.8-2.3-3.5-2.9c-2.1-0.8-4.5-1.8-4.5-4.4
			c0-2.4,2-4.3,5.3-4.3c1.9,0,3.6,0.8,4.7,1.7l-1.2,1.7c-1-0.8-2.1-1.4-3.5-1.4c-1.9,0-2.8,1-2.8,2.2c0,1.4,1.7,2,3.4,2.6
			c2.2,0.8,4.6,1.7,4.6,4.6c0,2.5-2,4.5-5.6,4.5C46.3,81,44.2,80.1,42.8,78.9z"/>
		<path class="st1" d="M55.9,78.9l1.3-1.7c1.3,1.1,2.7,1.8,4.5,1.8c2,0,3-1.1,3-2.4c0-1.6-1.8-2.3-3.5-2.9c-2.1-0.8-4.5-1.8-4.5-4.4
			c0-2.4,2-4.3,5.3-4.3c1.9,0,3.6,0.8,4.7,1.7l-1.2,1.7c-1-0.8-2.1-1.4-3.5-1.4c-1.9,0-2.8,1-2.8,2.2c0,1.4,1.7,2,3.4,2.6
			c2.2,0.8,4.6,1.7,4.6,4.6c0,2.5-2,4.5-5.6,4.5C59.4,81,57.4,80.1,55.9,78.9z"/>
		<path class="st1" d="M70.3,60.6c0-1,0.8-1.7,1.8-1.7s1.8,0.7,1.8,1.7c0,1-0.8,1.7-1.8,1.7S70.3,61.6,70.3,60.6z M70.7,65.4h2.6
			v15.2h-2.6V65.4z"/>
		<path class="st1" d="M77.3,73.1c0-5.1,3.4-8,7.3-8c2,0,3.4,0.8,4.5,1.8l-1.3,1.7c-0.9-0.8-1.8-1.3-3-1.3c-2.8,0-4.8,2.4-4.8,5.9
			s1.9,5.8,4.7,5.8c1.4,0,2.6-0.7,3.6-1.5l1.1,1.7C88,80.3,86.3,81,84.5,81C80.4,81,77.3,78.1,77.3,73.1z"/>
	</g>
</g>
</svg>
